<?xml version="1.0" encoding="utf-8"?>
<!-- Generator: Adobe Illustrator 18.0.0, SVG Export Plug-In . SVG Version: 6.00 Build 0)  -->
<!DOCTYPE svg PUBLIC "-//W3C//DTD SVG 1.1//EN" "http://www.w3.org/Graphics/SVG/1.1/DTD/svg11.dtd">
<svg version="1.1" id="Layer_1" xmlns="http://www.w3.org/2000/svg" xmlns:xlink="http://www.w3.org/1999/xlink" x="0px" y="0px"
	 viewBox="0 0 612 792" enable-background="new 0 0 612 792" xml:space="preserve">
<g id="Layer_1_1_">
	<path fill="none" stroke="#FFFFFF" stroke-width="1.5" d="M160.3,243.9c73.5-56.9,144.7,0,144.7,0s71.2-56.9,144.7,0v158.9
		c-73.5-56.9-144.7,0-144.7,0s-71.2-56.9-144.7,0L160.3,243.9"/>
	
		<line fill="none" stroke="#FFFFFF" stroke-width="1.5" stroke-linecap="round" stroke-linejoin="bevel" x1="305" y1="243.9" x2="305" y2="402.9"/>
</g>
<g id="Layer_3">
	<g>
		<path fill="#FFFFFF" d="M1.2,452.9h6.4v114.3h60v5.2H1.2V452.9z"/>
		<path fill="#FFFFFF" d="M87.5,452.9h7.4v9.3h-7.6v-9.3H87.5z M88.2,487.1h5.7v85.4h-5.7V487.1z"/>
		<path fill="#FFFFFF" d="M128.3,452.9h5.7v47.4h0.7c6.9-10.7,15.9-14.7,25.9-14.7c11.4,0,23.5,5.7,28.5,19.9
			c2.4,6.9,3.1,14,3.1,24.2c0,10-0.7,17.6-3.1,24.4c-4.7,14-17.1,19.9-28.5,19.9c-10,0-19.2-4-25.9-14.7H134v13.3h-5.7
			C128.3,572.7,128.3,452.9,128.3,452.9z M134,541.9c0,13.8,10.9,27.8,25.9,27.8c10.9,0,19-5.7,22.8-15.4c2.1-5.7,3.3-13.8,3.3-24.4
			c0-10.4-1.2-18.5-3.3-24.2c-3.8-9.7-11.9-15.4-22.8-15.4c-14.9,0-25.9,14-25.9,27.8V541.9z"/>
		<path fill="#FFFFFF" d="M219.4,487.1h5.9v13.8h0.7c5.2-10.4,13.8-14.9,21.8-14.9c10.7,0,16.8,6.4,21.8,14.9L265,503
			c-3.8-7.6-8.3-12.8-17.6-12.8c-11.4,0-22.1,13-22.1,28.2v54.1h-5.7v-85.4H219.4z"/>
		<path fill="#FFFFFF" d="M346.1,554c-5.7,13.5-17.8,19.9-30.8,19.9c-12.3,0-24.7-6.4-29.2-19.9c-2.4-6.9-2.8-13.3-2.8-24.2
			s0.5-17.3,2.8-24.2c4.5-13.3,16.8-19.9,29.2-19.9c12.3,0,24.7,6.4,29.2,19.9c2.4,6.9,2.8,12.6,2.8,23.5v1.2h-57.9
			c0.2,10.7,0.9,18,3.1,23.7c3.1,8.3,10.9,15.4,22.8,15.4c12.6,0,21.3-7.1,26.1-18L346.1,554z M289.4,526h51.9
			c-0.2-8.1-0.9-14.9-2.8-20.4c-3.1-8.3-10.7-15.4-23-15.4c-12.3,0-19.9,7.1-22.8,15.4C290.6,510.8,289.9,517.9,289.4,526z"/>
		<path fill="#FFFFFF" d="M422.5,572.5v-15.2c-6.4,8.8-15.4,16.6-29.4,16.6c-14.7,0-24.9-11.1-24.9-24.2c0-16.6,12.3-25.9,35.1-25.9
			h19.2v-10.7c0-12.1-5.7-22.8-21.3-22.8c-11.4,0-20.4,7.1-25.9,16.6l-4.5-2.4c7.1-12.3,18.5-18.5,30.4-18.5c16.1,0,27,8.8,27,28.9
			V573h-5.7V572.5z M422.5,528.1h-19.9c-17.3,0-28.5,6.9-28.5,21.6c0,11.6,6.9,19.9,20.6,19.9c11.1,0,21.3-8.8,27.5-19.7v-21.8
			H422.5z"/>
		<path fill="#FFFFFF" d="M518.8,572.5h-5.7v-13.3h-0.7c-6.9,10.7-16.1,14.7-25.9,14.7c-11.4,0-23.5-5.7-28.5-19.9
			c-2.4-6.9-3.1-14.5-3.1-24.4c0-10,0.7-17.3,3.1-24.2c4.7-14,17.1-19.9,28.5-19.9c10,0,19.2,4,25.9,14.7h0.7v-47.4h5.7V572.5z
			 M512.8,517.9c0-13.8-10.9-27.8-25.9-27.8c-10.9,0-19,5.7-22.8,15.4c-2.1,5.5-3.3,13.8-3.3,24.2c0,10.7,0.9,18.7,3.3,24.4
			c3.8,9.5,11.9,15.4,22.8,15.4c14.9,0,25.9-14,25.9-27.8V517.9z"/>
		<path fill="#FFFFFF" d="M578.6,573.9c-13.8,0-24.4-6.9-29.4-19.9c-2.6-6.9-3.1-13.3-3.1-24.2s0.5-17.3,3.1-24.2
			c5-13,15.7-19.9,29.4-19.9s24.4,6.9,29.4,19.9c2.6,6.9,3.1,13.3,3.1,24.2s-0.5,17.3-3.1,24.2C603,567,592.1,573.9,578.6,573.9z
			 M601.6,554c2.6-6.4,3.1-13.8,3.1-24.2c0-10.7-0.5-17.8-3.1-24.2c-3.1-8.1-10.7-15.4-23.2-15.4s-20.2,7.4-23.2,15.4
			c-2.6,6.4-3.1,13.8-3.1,24.2c0,10.7,0.5,17.8,3.1,24.2c3.1,8.1,10.9,15.4,23.2,15.4C590.7,569.4,598.7,562,601.6,554z"/>
	</g>
</g>
</svg>
