<?xml version="1.0" encoding="utf-8"?>
<!-- Generator: Adobe Illustrator 18.0.0, SVG Export Plug-In . SVG Version: 6.00 Build 0)  -->
<!DOCTYPE svg PUBLIC "-//W3C//DTD SVG 1.1//EN" "http://www.w3.org/Graphics/SVG/1.1/DTD/svg11.dtd">
<svg version="1.1" xmlns="http://www.w3.org/2000/svg" xmlns:xlink="http://www.w3.org/1999/xlink" x="0px" y="0px"
	 viewBox="0 0 258 151" enable-background="new 0 0 258 151" xml:space="preserve">
<g id="Layer_1">
	<path fill="none" stroke="#FFFFFF" stroke-width="1.5" d="M62.1,11.4c31-24,61,0,61,0s30-24,61,0v67c-31-24-61,0-61,0s-30-24-61,0
		V11.4"/>

		<line fill="none" stroke="#FFFFFF" stroke-width="1.5" stroke-linecap="round" stroke-linejoin="bevel" x1="123.1" y1="11.4" x2="123.1" y2="78.4"/>
</g>
<g id="Layer_3">
	<g>
		<path fill="#FFFFFF" d="M0.5,99.5h2.7v48.2h25.3v2.2H0.5V99.5z"/>
		<path fill="#FFFFFF" d="M36.9,99.5H40v3.9h-3.2V99.5z M37.2,113.9h2.4v36h-2.4V113.9z"/>
		<path fill="#FFFFFF" d="M54.1,99.5h2.4v20h0.3c2.9-4.5,6.7-6.2,10.9-6.2c4.8,0,9.9,2.4,12,8.4c1,2.9,1.3,5.9,1.3,10.2
			c0,4.2-0.3,7.4-1.3,10.3c-2,5.9-7.2,8.4-12,8.4c-4.2,0-8.1-1.7-10.9-6.2h-0.3v5.6h-2.4V99.5z M56.5,137c0,5.8,4.6,11.7,10.9,11.7
			c4.6,0,8-2.4,9.6-6.5c0.9-2.4,1.4-5.8,1.4-10.3c0-4.4-0.5-7.8-1.4-10.2c-1.6-4.1-5-6.5-9.6-6.5c-6.3,0-10.9,5.9-10.9,11.7V137z"/>
		<path fill="#FFFFFF" d="M92.5,113.9H95v5.8h0.3c2.2-4.4,5.8-6.3,9.2-6.3c4.5,0,7.1,2.7,9.2,6.3l-2,0.9c-1.6-3.2-3.5-5.4-7.4-5.4
			c-4.8,0-9.3,5.5-9.3,11.9v22.8h-2.4V113.9z"/>
		<path fill="#FFFFFF" d="M145.9,142.1c-2.4,5.7-7.5,8.4-13,8.4c-5.2,0-10.4-2.7-12.3-8.4c-1-2.9-1.2-5.6-1.2-10.2
			c0-4.6,0.2-7.3,1.2-10.2c1.9-5.6,7.1-8.4,12.3-8.4s10.4,2.7,12.3,8.4c1,2.9,1.2,5.3,1.2,9.9v0.5H122c0.1,4.5,0.4,7.6,1.3,10
			c1.3,3.5,4.6,6.5,9.6,6.5c5.3,0,9-3,11-7.6L145.9,142.1z M122,130.3h21.9c-0.1-3.4-0.4-6.3-1.2-8.6c-1.3-3.5-4.5-6.5-9.7-6.5
			s-8.4,3-9.6,6.5C122.5,123.9,122.2,126.9,122,130.3z"/>
		<path fill="#FFFFFF" d="M178.1,149.9v-6.4c-2.7,3.7-6.5,7-12.4,7c-6.2,0-10.5-4.7-10.5-10.2c0-7,5.2-10.9,14.8-10.9h8.1v-4.5
			c0-5.1-2.4-9.6-9-9.6c-4.8,0-8.6,3-10.9,7l-1.9-1c3-5.2,7.8-7.8,12.8-7.8c6.8,0,11.4,3.7,11.4,12.2v24.4H178.1z M178.1,131.2h-8.4
			c-7.3,0-12,2.9-12,9.1c0,4.9,2.9,8.4,8.7,8.4c4.7,0,9-3.7,11.6-8.3V131.2z"/>
		<path fill="#FFFFFF" d="M218.7,149.9h-2.4v-5.6h-0.3c-2.9,4.5-6.8,6.2-10.9,6.2c-4.8,0-9.9-2.4-12-8.4c-1-2.9-1.3-6.1-1.3-10.3
			c0-4.2,0.3-7.3,1.3-10.2c2-5.9,7.2-8.4,12-8.4c4.2,0,8.1,1.7,10.9,6.2h0.3v-20h2.4V149.9z M216.2,126.9c0-5.8-4.6-11.7-10.9-11.7
			c-4.6,0-8,2.4-9.6,6.5c-0.9,2.3-1.4,5.8-1.4,10.2c0,4.5,0.4,7.9,1.4,10.3c1.6,4,5,6.5,9.6,6.5c6.3,0,10.9-5.9,10.9-11.7V126.9z"/>
		<path fill="#FFFFFF" d="M243.9,150.5c-5.8,0-10.3-2.9-12.4-8.4c-1.1-2.9-1.3-5.6-1.3-10.2c0-4.6,0.2-7.3,1.3-10.2
			c2.1-5.5,6.6-8.4,12.4-8.4c5.8,0,10.3,2.9,12.4,8.4c1.1,2.9,1.3,5.6,1.3,10.2c0,4.6-0.2,7.3-1.3,10.2
			C254.2,147.6,249.6,150.5,243.9,150.5z M253.6,142.1c1.1-2.7,1.3-5.8,1.3-10.2c0-4.5-0.2-7.5-1.3-10.2c-1.3-3.4-4.5-6.5-9.8-6.5
			c-5.3,0-8.5,3.1-9.8,6.5c-1.1,2.7-1.3,5.8-1.3,10.2c0,4.5,0.2,7.5,1.3,10.2c1.3,3.4,4.6,6.5,9.8,6.5
			C249,148.6,252.4,145.5,253.6,142.1z"/>
	</g>
</g>
</svg>
